# xmcd
#
# Track frame offsets:
#	150
#	15065
#	28572
#	42255
#	66164
#	77437
#	95080
#	112687
#	133116
#	146674
#	156311
#	172843
#
# Disc length: 2550 seconds
# Revision: 0
# Processed by: cddbd v1.5.2PL0 Copyright (c) Steve Scherf et al.
# Submitted via: dBpowerAMP V12.0
#
DISCID=8b09f40c
DTITLE=[low Budget] Blues Band - [low Budget] Blues Band - Vol II
DYEAR=1990
DGENRE=Blues
TTITLE0=I'm Ready
TTITLE1=Can I Get A Witness
TTITLE2=The Devil's Right Hand
TTITLE3=Everybody Want's To Go To Heaven
TTITLE4=My Babe
TTITLE5=The Usual
TTITLE6=Walking The Dog
TTITLE7=Need Your Love So Bad
TTITLE8=Born Under A Bad Sign
TTITLE9=I Wish You Would
TTITLE10=I'd Rather Be Blind
TTITLE11=I'll Play The Blues For You
EXTD=
EXTT0=
EXTT1=
EXTT2=
EXTT3=
EXTT4=
EXTT5=
EXTT6=
EXTT7=
EXTT8=
EXTT9=
EXTT10=
EXTT11=
PLAYORDER=
